<?xml version="1.0" encoding="UTF-8" standalone="no"?>
<svg
   xmlns:dc="http://purl.org/dc/elements/1.1/"
   xmlns:cc="http://creativecommons.org/ns#"
   xmlns:rdf="http://www.w3.org/1999/02/22-rdf-syntax-ns#"
   xmlns:svg="http://www.w3.org/2000/svg"
   xmlns="http://www.w3.org/2000/svg"
   xmlns:sodipodi="http://sodipodi.sourceforge.net/DTD/sodipodi-0.dtd"
   xmlns:inkscape="http://www.inkscape.org/namespaces/inkscape"
   sodipodi:docname="keyboard.svg"
   inkscape:version="1.0 (4035a4fb49, 2020-05-01)"
   id="svg2502"
   version="1.1"
   viewBox="0 0 211.66666 74.083335"
   >
  <defs
     id="defs2496" />
  <sodipodi:namedview
     inkscape:window-maximized="0"
     inkscape:window-y="271"
     inkscape:window-x="1106"
     inkscape:window-height="1198"
     inkscape:window-width="1080"
     units="px"
     showgrid="false"
     inkscape:document-rotation="0"
     inkscape:current-layer="layer1"
     inkscape:document-units="mm"
     inkscape:cy="603.32045"
     inkscape:cx="440.87843"
     inkscape:zoom="0.49497475"
     inkscape:pageshadow="2"
     inkscape:pageopacity="0.0"
     borderopacity="1.0"
     bordercolor="#666666"
     pagecolor="#ffffff"
     id="base" />
  <metadata
     id="metadata2499">
    <rdf:RDF>
      <cc:Work
         rdf:about="">
        <dc:format>image/svg+xml</dc:format>
        <dc:type
           rdf:resource="http://purl.org/dc/dcmitype/StillImage" />
        <dc:title></dc:title>
      </cc:Work>
    </rdf:RDF>
  </metadata>
  <g
     id="layer1"
     inkscape:groupmode="layer"
     inkscape:label="Layer 1">
    <path
       style="fill:#cccccc;stroke:#000000;stroke-width:0.510551"
       id="path43"
       d="m 4.4890099,3.2825483 h 9.7004671 c 0.561606,0 1.021102,0.4594958 1.021102,1.0211014 v 9.7004673 c 0,0.561606 -0.459496,1.021102 -1.021102,1.021102 H 4.4890099 c -0.5616066,0 -1.0211024,-0.459496 -1.0211024,-1.021102 V 4.3036497 c 0,-0.5616056 0.4594958,-1.0211014 1.0211024,-1.0211014 z"
       class="st1" />
    <path
       style="fill:#cccccc;stroke:#000000;stroke-width:0.510551"
       id="path45"
       d="m 18.273884,3.2825483 h 9.700466 c 0.561607,0 1.021103,0.4594958 1.021103,1.0211014 v 9.7004673 c 0,0.561606 -0.459496,1.021102 -1.021103,1.021102 h -9.700466 c -0.561606,0 -1.021102,-0.459496 -1.021102,-1.021102 V 4.3036497 c 0,-0.5616056 0.459496,-1.0211014 1.021102,-1.0211014 z"
       class="st1" />
    <path
       style="fill:#cccccc;stroke:#000000;stroke-width:0.510551"
       id="path47"
       d="m 32.058758,3.2825483 h 9.700466 c 0.561607,0 1.021102,0.4594958 1.021102,1.0211014 v 9.7004673 c 0,0.561606 -0.459495,1.021102 -1.021102,1.021102 h -9.700466 c -0.561607,0 -1.021102,-0.459496 -1.021102,-1.021102 V 4.3036497 c 0,-0.5616056 0.459495,-1.0211014 1.021102,-1.0211014 z"
       class="st1" />
    <path
       style="fill:#cccccc;stroke:#000000;stroke-width:0.510551"
       id="path49"
       d="m 45.843632,3.2825483 h 9.700466 c 0.561606,0 1.021102,0.4594958 1.021102,1.0211014 v 9.7004673 c 0,0.561606 -0.459496,1.021102 -1.021102,1.021102 h -9.700466 c -0.561608,0 -1.021104,-0.459496 -1.021104,-1.021102 V 4.3036497 c 0,-0.5616056 0.459496,-1.0211014 1.021104,-1.0211014 z"
       class="st1" />
    <path
       style="fill:#cccccc;stroke:#000000;stroke-width:0.510551"
       id="path51"
       d="m 59.628505,3.2825483 h 9.700467 c 0.561606,0 1.021102,0.4594958 1.021102,1.0211014 v 9.7004673 c 0,0.561606 -0.459496,1.021102 -1.021102,1.021102 h -9.700467 c -0.561606,0 -1.021102,-0.459496 -1.021102,-1.021102 V 4.3036497 c 0,-0.5616056 0.459496,-1.0211014 1.021102,-1.0211014 z"
       class="st1" />
    <path
       style="fill:#cccccc;stroke:#000000;stroke-width:0.510551"
       id="path53"
       d="m 73.413379,3.2825483 h 9.700466 c 0.561607,0 1.021103,0.4594958 1.021103,1.0211014 v 9.7004673 c 0,0.561606 -0.459496,1.021102 -1.021103,1.021102 h -9.700466 c -0.561606,0 -1.021102,-0.459496 -1.021102,-1.021102 V 4.3036497 c 0,-0.5616056 0.459496,-1.0211014 1.021102,-1.0211014 z"
       class="st1" />
    <path
       style="fill:#cccccc;stroke:#000000;stroke-width:0.510551"
       id="path55"
       d="m 87.198253,3.2825483 h 9.700466 c 0.561607,0 1.021099,0.4594958 1.021099,1.0211014 v 9.7004673 c 0,0.561606 -0.459492,1.021102 -1.021099,1.021102 h -9.700466 c -0.561607,0 -1.021102,-0.459496 -1.021102,-1.021102 V 4.3036497 c 0,-0.5616056 0.459495,-1.0211014 1.021102,-1.0211014 z"
       class="st1" />
    <path
       style="fill:#cccccc;stroke:#000000;stroke-width:0.510551"
       id="path57"
       d="m 100.98314,3.2825483 h 9.70046 c 0.56161,0 1.0211,0.4594958 1.0211,1.0211014 v 9.7004673 c 0,0.561606 -0.45949,1.021102 -1.0211,1.021102 h -9.70046 c -0.56162,0 -1.021116,-0.459496 -1.021116,-1.021102 V 4.3036497 c 0,-0.5616056 0.459496,-1.0211014 1.021116,-1.0211014 z"
       class="st1" />
    <path
       style="fill:#cccccc;stroke:#000000;stroke-width:0.510551"
       id="path59"
       d="m 114.76801,3.2825483 h 9.70046 c 0.56161,0 1.02111,0.4594958 1.02111,1.0211014 v 9.7004673 c 0,0.561606 -0.4595,1.021102 -1.02111,1.021102 h -9.70046 c -0.56161,0 -1.02111,-0.459496 -1.02111,-1.021102 V 4.3036497 c 0,-0.5616056 0.4595,-1.0211014 1.02111,-1.0211014 z"
       class="st1" />
    <path
       style="fill:#cccccc;stroke:#000000;stroke-width:0.510551"
       id="path61"
       d="m 128.55288,3.2825483 h 9.70046 c 0.56162,0 1.02111,0.4594958 1.02111,1.0211014 v 9.7004673 c 0,0.561606 -0.45949,1.021102 -1.02111,1.021102 h -9.70046 c -0.56161,0 -1.0211,-0.459496 -1.0211,-1.021102 V 4.3036497 c 0,-0.5616056 0.45949,-1.0211014 1.0211,-1.0211014 z"
       class="st1" />
    <path
       style="fill:#cccccc;stroke:#000000;stroke-width:0.510551"
       id="path63"
       d="m 142.33776,3.2825483 h 9.70046 c 0.56161,0 1.02111,0.4594958 1.02111,1.0211014 v 9.7004673 c 0,0.561606 -0.4595,1.021102 -1.02111,1.021102 h -9.70046 c -0.56161,0 -1.02111,-0.459496 -1.02111,-1.021102 V 4.3036497 c 0,-0.5616056 0.4595,-1.0211014 1.02111,-1.0211014 z"
       class="st1" />
    <path
       style="fill:#cccccc;stroke:#000000;stroke-width:0.510551"
       id="path65"
       d="m 156.12263,3.2825483 h 9.70046 c 0.56161,0 1.02111,0.4594958 1.02111,1.0211014 v 9.7004673 c 0,0.561606 -0.4595,1.021102 -1.02111,1.021102 h -9.70046 c -0.56161,0 -1.02111,-0.459496 -1.02111,-1.021102 V 4.3036497 c 0,-0.5616056 0.4595,-1.0211014 1.02111,-1.0211014 z"
       class="st1" />
    <path
       style="fill:#cccccc;stroke:#000000;stroke-width:0.510551"
       id="path67"
       d="m 169.90751,3.2825483 h 9.70046 c 0.56161,0 1.0211,0.4594958 1.0211,1.0211014 v 9.7004673 c 0,0.561606 -0.45949,1.021102 -1.0211,1.021102 h -9.70046 c -0.56162,0 -1.02111,-0.459496 -1.02111,-1.021102 V 4.3036497 c 0,-0.5616056 0.45949,-1.0211014 1.02111,-1.0211014 z"
       class="st1" />
    <path
       style="fill:#cccccc;stroke:#000000;stroke-width:0.510551"
       id="path69"
       d="m 183.69238,3.2825483 h 23.48533 c 0.56162,0 1.02111,0.4594958 1.02111,1.0211014 v 9.7004673 c 0,0.561606 -0.45949,1.021102 -1.02111,1.021102 h -23.48533 c -0.56161,0 -1.02111,-0.459496 -1.02111,-1.021102 V 4.3036497 c 0,-0.5616056 0.4595,-1.0211014 1.02111,-1.0211014 z"
       class="st1" />
    <path
       style="fill:#cccccc;stroke:#000000;stroke-width:0.510551"
       id="path85"
       d="M 4.4890099,17.067422 H 21.081913 c 0.561607,0 1.021103,0.459496 1.021103,1.021102 v 9.700466 c 0,0.561607 -0.459496,1.021103 -1.021103,1.021103 H 4.4890099 c -0.5616066,0 -1.0211024,-0.459496 -1.0211024,-1.021103 v -9.700466 c 0,-0.561606 0.4594958,-1.021102 1.0211024,-1.021102 z"
       class="st1" />
    <path
       style="fill:#cccccc;stroke:#000000;stroke-width:0.510551"
       id="path87"
       d="m 25.166321,17.067422 h 9.700466 c 0.561607,0 1.021103,0.459496 1.021103,1.021102 v 9.700466 c 0,0.561607 -0.459496,1.021103 -1.021103,1.021103 h -9.700466 c -0.561607,0 -1.021102,-0.459496 -1.021102,-1.021103 v -9.700466 c 0,-0.561606 0.459495,-1.021102 1.021102,-1.021102 z"
       class="st1" />
    <path
       style="fill:#cccccc;stroke:#000000;stroke-width:0.510551"
       id="path89"
       d="m 38.951195,17.067422 h 9.700466 c 0.561607,0 1.021102,0.459496 1.021102,1.021102 v 9.700466 c 0,0.561607 -0.459495,1.021103 -1.021102,1.021103 h -9.700466 c -0.561607,0 -1.021103,-0.459496 -1.021103,-1.021103 v -9.700466 c 0,-0.561606 0.459496,-1.021102 1.021103,-1.021102 z"
       class="st1" />
    <path
       style="fill:#cccccc;stroke:#000000;stroke-width:0.510551"
       id="path91"
       d="m 52.736069,17.067422 h 9.700466 c 0.561606,0 1.021102,0.459496 1.021102,1.021102 v 9.700466 c 0,0.561607 -0.459496,1.021103 -1.021102,1.021103 h -9.700466 c -0.561607,0 -1.021103,-0.459496 -1.021103,-1.021103 v -9.700466 c 0,-0.561606 0.459496,-1.021102 1.021103,-1.021102 z"
       class="st1" />
    <path
       style="fill:#cccccc;stroke:#000000;stroke-width:0.510551"
       id="path93"
       d="m 66.520942,17.067422 h 9.700466 c 0.561607,0 1.021103,0.459496 1.021103,1.021102 v 9.700466 c 0,0.561607 -0.459496,1.021103 -1.021103,1.021103 h -9.700466 c -0.561606,0 -1.021102,-0.459496 -1.021102,-1.021103 v -9.700466 c 0,-0.561606 0.459496,-1.021102 1.021102,-1.021102 z"
       class="st1" />
    <path
       style="fill:#cccccc;stroke:#000000;stroke-width:0.510551"
       id="path95"
       d="m 80.305816,17.067422 h 9.700466 c 0.561607,0 1.021103,0.459496 1.021103,1.021102 v 9.700466 c 0,0.561607 -0.459496,1.021103 -1.021103,1.021103 h -9.700466 c -0.561607,0 -1.021102,-0.459496 -1.021102,-1.021103 v -9.700466 c 0,-0.561606 0.459495,-1.021102 1.021102,-1.021102 z"
       class="st1" />
    <path
       style="fill:#cccccc;stroke:#000000;stroke-width:0.510551"
       id="path97"
       d="m 94.09069,17.067422 h 9.70047 c 0.56161,0 1.02111,0.459496 1.02111,1.021102 v 9.700466 c 0,0.561607 -0.4595,1.021103 -1.02111,1.021103 h -9.70047 c -0.561607,0 -1.021103,-0.459496 -1.021103,-1.021103 v -9.700466 c 0,-0.561606 0.459496,-1.021102 1.021103,-1.021102 z"
       class="st1" />
    <path
       style="fill:#cccccc;stroke:#000000;stroke-width:0.510551"
       id="path99"
       d="m 107.87557,17.067422 h 9.70046 c 0.56162,0 1.02111,0.459496 1.02111,1.021102 v 9.700466 c 0,0.561607 -0.45949,1.021103 -1.02111,1.021103 h -9.70046 c -0.56161,0 -1.0211,-0.459496 -1.0211,-1.021103 v -9.700466 c 0,-0.561606 0.45949,-1.021102 1.0211,-1.021102 z"
       class="st1" />
    <path
       style="fill:#cccccc;stroke:#000000;stroke-width:0.510551"
       id="path101"
       d="m 121.66045,17.067422 h 9.70046 c 0.56161,0 1.02111,0.459496 1.02111,1.021102 v 9.700466 c 0,0.561607 -0.4595,1.021103 -1.02111,1.021103 h -9.70046 c -0.56162,0 -1.02111,-0.459496 -1.02111,-1.021103 v -9.700466 c 0,-0.561606 0.45949,-1.021102 1.02111,-1.021102 z"
       class="st1" />
    <path
       style="fill:#cccccc;stroke:#000000;stroke-width:0.510551"
       id="path103"
       d="m 135.44532,17.067422 h 9.70046 c 0.56161,0 1.02111,0.459496 1.02111,1.021102 v 9.700466 c 0,0.561607 -0.4595,1.021103 -1.02111,1.021103 h -9.70046 c -0.56161,0 -1.02111,-0.459496 -1.02111,-1.021103 v -9.700466 c 0,-0.561606 0.4595,-1.021102 1.02111,-1.021102 z"
       class="st1" />
    <path
       style="fill:#cccccc;stroke:#000000;stroke-width:0.510551"
       id="path105"
       d="m 149.23019,17.067422 h 9.70046 c 0.56162,0 1.02111,0.459496 1.02111,1.021102 v 9.700466 c 0,0.561607 -0.45949,1.021103 -1.02111,1.021103 h -9.70046 c -0.56161,0 -1.0211,-0.459496 -1.0211,-1.021103 v -9.700466 c 0,-0.561606 0.45949,-1.021102 1.0211,-1.021102 z"
       class="st1" />
    <path
       style="fill:#cccccc;stroke:#000000;stroke-width:0.510551"
       id="path107"
       d="m 163.01507,17.067422 h 9.70046 c 0.56161,0 1.02111,0.459496 1.02111,1.021102 v 9.700466 c 0,0.561607 -0.4595,1.021103 -1.02111,1.021103 h -9.70046 c -0.56161,0 -1.02111,-0.459496 -1.02111,-1.021103 v -9.700466 c 0,-0.561606 0.4595,-1.021102 1.02111,-1.021102 z"
       class="st1" />
    <path
       style="fill:#cccccc;stroke:#000000;stroke-width:0.510551"
       id="path109"
       d="m 176.79994,17.067422 h 9.70046 c 0.56161,0 1.02111,0.459496 1.02111,1.021102 v 9.700466 c 0,0.561607 -0.4595,1.021103 -1.02111,1.021103 h -9.70046 c -0.56161,0 -1.02111,-0.459496 -1.02111,-1.021103 v -9.700466 c 0,-0.561606 0.4595,-1.021102 1.02111,-1.021102 z"
       class="st1" />
    <path
       style="fill:#cccccc;stroke:#000000;stroke-width:0.510551"
       id="path111"
       d="m 190.58482,17.067422 h 16.59289 c 0.56162,0 1.02111,0.459496 1.02111,1.021102 v 9.700466 c 0,0.561607 -0.45949,1.021103 -1.02111,1.021103 h -16.59289 c -0.56162,0 -1.02111,-0.459496 -1.02111,-1.021103 v -9.700466 c 0,-0.561606 0.45949,-1.021102 1.02111,-1.021102 z"
       class="st1" />
    <path
       style="fill:#cccccc;stroke:#000000;stroke-width:0.510551"
       id="path127"
       d="M 4.4890099,30.852296 H 24.528132 c 0.561606,0 1.021102,0.459495 1.021102,1.021102 v 9.700466 c 0,0.561607 -0.459496,1.021102 -1.021102,1.021102 H 4.4890099 c -0.5616066,0 -1.0211024,-0.459495 -1.0211024,-1.021102 v -9.700466 c 0,-0.561607 0.4594958,-1.021102 1.0211024,-1.021102 z"
       class="st1" />
    <path
       style="fill:#cccccc;stroke:#000000;stroke-width:0.510551"
       id="path129"
       d="m 28.61254,30.852296 h 9.700466 c 0.561606,0 1.021102,0.459495 1.021102,1.021102 v 9.700466 c 0,0.561607 -0.459496,1.021102 -1.021102,1.021102 H 28.61254 c -0.561607,0 -1.021103,-0.459495 -1.021103,-1.021102 v -9.700466 c 0,-0.561607 0.459496,-1.021102 1.021103,-1.021102 z"
       class="st1" />
    <path
       style="fill:#cccccc;stroke:#000000;stroke-width:0.510551"
       id="path131"
       d="m 42.397413,30.852296 h 9.700466 c 0.561607,0 1.021103,0.459495 1.021103,1.021102 v 9.700466 c 0,0.561607 -0.459496,1.021102 -1.021103,1.021102 h -9.700466 c -0.561606,0 -1.021102,-0.459495 -1.021102,-1.021102 v -9.700466 c 0,-0.561607 0.459496,-1.021102 1.021102,-1.021102 z"
       class="st1" />
    <path
       style="fill:#cccccc;stroke:#000000;stroke-width:0.510551"
       id="path133"
       d="m 56.182287,30.852296 h 9.700466 c 0.561607,0 1.021102,0.459495 1.021102,1.021102 v 9.700466 c 0,0.561607 -0.459495,1.021102 -1.021102,1.021102 h -9.700466 c -0.561607,0 -1.021102,-0.459495 -1.021102,-1.021102 v -9.700466 c 0,-0.561607 0.459495,-1.021102 1.021102,-1.021102 z"
       class="st1" />
    <path
       style="fill:#cccccc;stroke:#000000;stroke-width:0.510551"
       id="path135"
       d="m 69.967161,30.852296 h 9.700466 c 0.561606,0 1.021102,0.459495 1.021102,1.021102 v 9.700466 c 0,0.561607 -0.459496,1.021102 -1.021102,1.021102 h -9.700466 c -0.561607,0 -1.021103,-0.459495 -1.021103,-1.021102 v -9.700466 c 0,-0.561607 0.459496,-1.021102 1.021103,-1.021102 z"
       class="st1" />
    <path
       style="fill:#cccccc;stroke:#000000;stroke-width:0.510551"
       id="path137"
       d="m 83.752035,30.852296 h 9.700466 c 0.561606,0 1.021102,0.459495 1.021102,1.021102 v 9.700466 c 0,0.561607 -0.459496,1.021102 -1.021102,1.021102 h -9.700466 c -0.561607,0 -1.021103,-0.459495 -1.021103,-1.021102 v -9.700466 c 0,-0.561607 0.459496,-1.021102 1.021103,-1.021102 z"
       class="st1" />
    <path
       style="fill:#cccccc;stroke:#000000;stroke-width:0.510551"
       id="path139"
       d="m 97.536908,30.852296 h 9.700472 c 0.56161,0 1.0211,0.459495 1.0211,1.021102 v 9.700466 c 0,0.561607 -0.45949,1.021102 -1.0211,1.021102 h -9.700472 c -0.561606,0 -1.021102,-0.459495 -1.021102,-1.021102 v -9.700466 c 0,-0.561607 0.459496,-1.021102 1.021102,-1.021102 z"
       class="st1" />
    <path
       style="fill:#cccccc;stroke:#000000;stroke-width:0.510551"
       id="path141"
       d="m 111.32179,30.852296 h 9.70047 c 0.5616,0 1.0211,0.459495 1.0211,1.021102 v 9.700466 c 0,0.561607 -0.4595,1.021102 -1.0211,1.021102 h -9.70047 c -0.56161,0 -1.0211,-0.459495 -1.0211,-1.021102 v -9.700466 c 0,-0.561607 0.45949,-1.021102 1.0211,-1.021102 z"
       class="st1" />
    <path
       style="fill:#cccccc;stroke:#000000;stroke-width:0.510551"
       id="path143"
       d="m 125.10666,30.852296 h 9.70047 c 0.5616,0 1.0211,0.459495 1.0211,1.021102 v 9.700466 c 0,0.561607 -0.4595,1.021102 -1.0211,1.021102 h -9.70047 c -0.5616,0 -1.0211,-0.459495 -1.0211,-1.021102 v -9.700466 c 0,-0.561607 0.4595,-1.021102 1.0211,-1.021102 z"
       class="st1" />
    <path
       style="fill:#cccccc;stroke:#000000;stroke-width:0.510551"
       id="path145"
       d="m 138.89153,30.852296 h 9.70047 c 0.56161,0 1.0211,0.459495 1.0211,1.021102 v 9.700466 c 0,0.561607 -0.45949,1.021102 -1.0211,1.021102 h -9.70047 c -0.5616,0 -1.02109,-0.459495 -1.02109,-1.021102 v -9.700466 c 0,-0.561607 0.45949,-1.021102 1.02109,-1.021102 z"
       class="st1" />
    <path
       style="fill:#cccccc;stroke:#000000;stroke-width:0.510551"
       id="path147"
       d="m 152.67641,30.852296 h 9.70047 c 0.5616,0 1.0211,0.459495 1.0211,1.021102 v 9.700466 c 0,0.561607 -0.4595,1.021102 -1.0211,1.021102 h -9.70047 c -0.5616,0 -1.0211,-0.459495 -1.0211,-1.021102 v -9.700466 c 0,-0.561607 0.4595,-1.021102 1.0211,-1.021102 z"
       class="st1" />
    <path
       style="fill:#cccccc;stroke:#000000;stroke-width:0.510551"
       id="path149"
       d="m 166.46128,30.852296 h 9.70047 c 0.5616,0 1.0211,0.459495 1.0211,1.021102 v 9.700466 c 0,0.561607 -0.4595,1.021102 -1.0211,1.021102 h -9.70047 c -0.5616,0 -1.0211,-0.459495 -1.0211,-1.021102 v -9.700466 c 0,-0.561607 0.4595,-1.021102 1.0211,-1.021102 z"
       class="st1" />
    <path
       style="fill:#cc0000;stroke:#000000;stroke-width:0.510551"
       id="path151"
       d="m 180.24616,30.852296 h 26.93155 c 0.56162,0 1.02111,0.459495 1.02111,1.021102 v 9.700466 c 0,0.561607 -0.45949,1.021102 -1.02111,1.021102 h -26.93155 c -0.56161,0 -1.0211,-0.459495 -1.0211,-1.021102 v -9.700466 c 0,-0.561607 0.45949,-1.021102 1.0211,-1.021102 z"
       class="st2" />
    <path
       style="fill:#cccccc;stroke:#000000;stroke-width:0.510551"
       id="path159"
       d="M 4.4890099,44.637169 H 31.420569 c 0.561606,0 1.021102,0.459496 1.021102,1.021103 v 9.700466 c 0,0.561606 -0.459496,1.021102 -1.021102,1.021102 H 4.4890099 c -0.5616066,0 -1.0211024,-0.459496 -1.0211024,-1.021102 v -9.700466 c 0,-0.561607 0.4594958,-1.021103 1.0211024,-1.021103 z"
       class="st1" />
    <path
       style="fill:#cccccc;stroke:#000000;stroke-width:0.510551"
       id="path161"
       d="m 35.504976,44.637169 h 9.700466 c 0.561607,0 1.021103,0.459496 1.021103,1.021103 v 9.700466 c 0,0.561606 -0.459496,1.021102 -1.021103,1.021102 h -9.700466 c -0.561606,0 -1.021102,-0.459496 -1.021102,-1.021102 v -9.700466 c 0,-0.561607 0.459496,-1.021103 1.021102,-1.021103 z"
       class="st1" />
    <path
       style="fill:#cccccc;stroke:#000000;stroke-width:0.510551"
       id="path163"
       d="m 49.28985,44.637169 h 9.700466 c 0.561607,0 1.021103,0.459496 1.021103,1.021103 v 9.700466 c 0,0.561606 -0.459496,1.021102 -1.021103,1.021102 H 49.28985 c -0.561606,0 -1.021102,-0.459496 -1.021102,-1.021102 v -9.700466 c 0,-0.561607 0.459496,-1.021103 1.021102,-1.021103 z"
       class="st1" />
    <path
       style="fill:#cccccc;stroke:#000000;stroke-width:0.510551"
       id="path165"
       d="m 63.074724,44.637169 h 9.700466 c 0.561607,0 1.021102,0.459496 1.021102,1.021103 v 9.700466 c 0,0.561606 -0.459495,1.021102 -1.021102,1.021102 h -9.700466 c -0.561607,0 -1.021103,-0.459496 -1.021103,-1.021102 v -9.700466 c 0,-0.561607 0.459496,-1.021103 1.021103,-1.021103 z"
       class="st1" />
    <path
       style="fill:#cccccc;stroke:#000000;stroke-width:0.510551"
       id="path167"
       d="m 76.859598,44.637169 h 9.700466 c 0.561606,0 1.021102,0.459496 1.021102,1.021103 v 9.700466 c 0,0.561606 -0.459496,1.021102 -1.021102,1.021102 h -9.700466 c -0.561607,0 -1.021103,-0.459496 -1.021103,-1.021102 v -9.700466 c 0,-0.561607 0.459496,-1.021103 1.021103,-1.021103 z"
       class="st1" />
    <path
       style="fill:#cccccc;stroke:#000000;stroke-width:0.510551"
       id="path169"
       d="m 90.644471,44.637169 h 9.700469 c 0.56161,0 1.0211,0.459496 1.0211,1.021103 v 9.700466 c 0,0.561606 -0.45949,1.021102 -1.0211,1.021102 h -9.700469 c -0.561606,0 -1.021102,-0.459496 -1.021102,-1.021102 v -9.700466 c 0,-0.561607 0.459496,-1.021103 1.021102,-1.021103 z"
       class="st1" />
    <path
       style="fill:#cccccc;stroke:#000000;stroke-width:0.510551"
       id="path171"
       d="m 104.42935,44.637169 h 9.70047 c 0.5616,0 1.0211,0.459496 1.0211,1.021103 v 9.700466 c 0,0.561606 -0.4595,1.021102 -1.0211,1.021102 h -9.70047 c -0.5616,0 -1.0211,-0.459496 -1.0211,-1.021102 v -9.700466 c 0,-0.561607 0.4595,-1.021103 1.0211,-1.021103 z"
       class="st1" />
    <path
       style="fill:#cccccc;stroke:#000000;stroke-width:0.510551"
       id="path173"
       d="m 118.21422,44.637169 h 9.70047 c 0.56161,0 1.0211,0.459496 1.0211,1.021103 v 9.700466 c 0,0.561606 -0.45949,1.021102 -1.0211,1.021102 h -9.70047 c -0.5616,0 -1.02109,-0.459496 -1.02109,-1.021102 v -9.700466 c 0,-0.561607 0.45949,-1.021103 1.02109,-1.021103 z"
       class="st1" />
    <path
       style="fill:#cccccc;stroke:#000000;stroke-width:0.510551"
       id="path175"
       d="m 131.9991,44.637169 h 9.70047 c 0.5616,0 1.0211,0.459496 1.0211,1.021103 v 9.700466 c 0,0.561606 -0.4595,1.021102 -1.0211,1.021102 h -9.70047 c -0.56161,0 -1.0211,-0.459496 -1.0211,-1.021102 v -9.700466 c 0,-0.561607 0.45949,-1.021103 1.0211,-1.021103 z"
       class="st1" />
    <path
       style="fill:#cccccc;stroke:#000000;stroke-width:0.510551"
       id="path177"
       d="m 145.78397,44.637169 h 9.70047 c 0.5616,0 1.0211,0.459496 1.0211,1.021103 v 9.700466 c 0,0.561606 -0.4595,1.021102 -1.0211,1.021102 h -9.70047 c -0.5616,0 -1.0211,-0.459496 -1.0211,-1.021102 v -9.700466 c 0,-0.561607 0.4595,-1.021103 1.0211,-1.021103 z"
       class="st1" />
    <path
       style="fill:#cccccc;stroke:#000000;stroke-width:0.510551"
       id="path179"
       d="m 159.56885,44.637169 h 9.70046 c 0.56161,0 1.0211,0.459496 1.0211,1.021103 v 9.700466 c 0,0.561606 -0.45949,1.021102 -1.0211,1.021102 h -9.70046 c -0.56161,0 -1.0211,-0.459496 -1.0211,-1.021102 v -9.700466 c 0,-0.561607 0.45949,-1.021103 1.0211,-1.021103 z"
       class="st1" />
    <path
       style="fill:#cccccc;stroke:#000000;stroke-width:0.510551"
       id="path181"
       d="m 173.35372,44.637169 h 33.82399 c 0.56162,0 1.02111,0.459496 1.02111,1.021103 v 9.700466 c 0,0.561606 -0.45949,1.021102 -1.02111,1.021102 h -33.82399 c -0.5616,0 -1.0211,-0.459496 -1.0211,-1.021102 v -9.700466 c 0,-0.561607 0.4595,-1.021103 1.0211,-1.021103 z"
       class="st1" />
    <path
       style="fill:#cccccc;stroke:#000000;stroke-width:0.510551"
       id="path193"
       d="M 4.4890099,58.422043 H 17.635695 c 0.561607,0 1.021102,0.459496 1.021102,1.021102 v 9.700467 c 0,0.561606 -0.459495,1.021102 -1.021102,1.021102 H 4.4890099 c -0.5616066,0 -1.0211024,-0.459496 -1.0211024,-1.021102 v -9.700467 c 0,-0.561606 0.4594958,-1.021102 1.0211024,-1.021102 z"
       class="st1" />
    <path
       style="fill:#cccccc;stroke:#000000;stroke-width:0.510551"
       id="path195"
       d="m 21.720103,58.422043 h 13.146684 c 0.561607,0 1.021103,0.459496 1.021103,1.021102 v 9.700467 c 0,0.561606 -0.459496,1.021102 -1.021103,1.021102 H 21.720103 c -0.561607,0 -1.021103,-0.459496 -1.021103,-1.021102 v -9.700467 c 0,-0.561606 0.459496,-1.021102 1.021103,-1.021102 z"
       class="st1" />
    <path
       style="fill:#cccccc;stroke:#000000;stroke-width:0.510551"
       id="path197"
       d="m 38.951195,58.422043 h 13.146684 c 0.561607,0 1.021103,0.459496 1.021103,1.021102 v 9.700467 c 0,0.561606 -0.459496,1.021102 -1.021103,1.021102 H 38.951195 c -0.561607,0 -1.021103,-0.459496 -1.021103,-1.021102 v -9.700467 c 0,-0.561606 0.459496,-1.021102 1.021103,-1.021102 z"
       class="st1" />
    <path
       style="fill:#cccccc;stroke:#000000;stroke-width:0.510551"
       id="path199"
       d="m 56.182287,58.422043 h 82.071053 c 0.56162,0 1.02111,0.459496 1.02111,1.021102 v 9.700467 c 0,0.561606 -0.45949,1.021102 -1.02111,1.021102 H 56.182287 c -0.561607,0 -1.021102,-0.459496 -1.021102,-1.021102 v -9.700467 c 0,-0.561606 0.459495,-1.021102 1.021102,-1.021102 z"
       class="st1" />
    <path
       style="fill:#cccccc;stroke:#000000;stroke-width:0.510551"
       id="path201"
       d="m 142.33776,58.422043 h 13.14668 c 0.5616,0 1.0211,0.459496 1.0211,1.021102 v 9.700467 c 0,0.561606 -0.4595,1.021102 -1.0211,1.021102 h -13.14668 c -0.56161,0 -1.02111,-0.459496 -1.02111,-1.021102 v -9.700467 c 0,-0.561606 0.4595,-1.021102 1.02111,-1.021102 z"
       class="st1" />
    <path
       style="fill:#cccccc;stroke:#000000;stroke-width:0.510551"
       id="path203"
       d="m 159.56885,58.422043 h 13.14668 c 0.56161,0 1.02111,0.459496 1.02111,1.021102 v 9.700467 c 0,0.561606 -0.4595,1.021102 -1.02111,1.021102 h -13.14668 c -0.56161,0 -1.0211,-0.459496 -1.0211,-1.021102 v -9.700467 c 0,-0.561606 0.45949,-1.021102 1.0211,-1.021102 z"
       class="st1" />
    <path
       style="fill:#cccccc;stroke:#000000;stroke-width:0.510551"
       id="path205"
       d="m 176.79994,58.422043 h 13.14669 c 0.5616,0 1.02109,0.459496 1.02109,1.021102 v 9.700467 c 0,0.561606 -0.45949,1.021102 -1.02109,1.021102 h -13.14669 c -0.56161,0 -1.02111,-0.459496 -1.02111,-1.021102 v -9.700467 c 0,-0.561606 0.4595,-1.021102 1.02111,-1.021102 z"
       class="st1" />
    <path
       style="fill:#cccccc;stroke:#000000;stroke-width:0.510551"
       id="path207"
       d="m 194.03103,58.422043 h 13.14668 c 0.56162,0 1.02111,0.459496 1.02111,1.021102 v 9.700467 c 0,0.561606 -0.45949,1.021102 -1.02111,1.021102 h -13.14668 c -0.5616,0 -1.0211,-0.459496 -1.0211,-1.021102 v -9.700467 c 0,-0.561606 0.4595,-1.021102 1.0211,-1.021102 z"
       class="st1" />
    <g
       id="g511"
       transform="matrix(0.25527544,0,0,0.25527544,-2.1216743,-17.268573)">
      <path
         id="path507"
         d="m 35.800276,86.499674 c -0.5,1.3 -1.1,2 -2.2,2 -0.6,0 -0.9,-0.2 -1.4,-0.5 -0.6,-0.4 -0.9,-0.6 -1.2,-0.6 -0.5,0 -0.7,0.3 -1,1.1 l -1,-0.5 c 0.5,-1.3 1.1,-2 2.2,-2 0.6,0 0.9,0.2 1.4,0.5 0.5,0.4 0.9,0.6 1.2,0.6 0.5,0 0.7,-0.3 1.1,-1.1 z" />
      <path
         id="path509"
         d="m 33.9,104.2 h -1.2 l -2.3,-2.3 h 2 z" />
    </g>
    <g
       id="g517"
       transform="matrix(0.25527544,0,0,0.25527544,-2.1216743,-17.268573)">
      <path
         id="path513"
         d="m 87.6,94.8 c 0,0.6 -0.5,1.1 -1.1,1.1 -0.6,0 -1.1,-0.5 -1.1,-1.1 0,-0.6 0.5,-1.1 1.1,-1.1 0.6,0 1.1,0.5 1.1,1.1 z M 87.3,90.2 87,92.8 h -1 l -0.3,-2.7 v -4.4 h 1.5 v 4.5 z" />
      <path
         id="path515"
         d="m 87.6,112.7 h -1.5 v -7.6 h -1.8 v -1 c 1,-0.1 1.9,-0.4 2,-1.3 h 1.2 v 9.9 z" />
    </g>
    <g
       id="g523"
       transform="matrix(0.25527544,0,0,0.25527544,-2.1216743,-17.268573)">
      <path
         id="path519"
         d="m 145.6,89.1 c 0,2.1 -0.9,2.9 -2.2,2.9 -0.7,0 -1.3,-0.4 -1.5,-0.9 -0.3,0.5 -1.1,0.9 -1.8,0.9 -1.1,0 -2.2,-0.6 -2.2,-1.9 0,-1.2 1.1,-1.8 2.3,-1.8 0.6,0 1.1,0.2 1.4,0.4 V 88 c 0,-0.6 -0.5,-0.8 -1.3,-0.8 -0.5,0 -1,0.1 -1.4,0.3 l -0.4,-0.7 c 0.5,-0.3 1.2,-0.5 1.8,-0.5 1.3,0 2.2,0.6 2.2,1.7 v 2.4 c 0,0.5 0.3,0.9 0.9,0.9 0.9,0 1.2,-0.7 1.2,-2.1 0,-2.3 -1.8,-4.2 -4.3,-4.2 -2.5,0 -4.3,1.8 -4.3,4.3 0,2.5 1.8,4.3 4.3,4.3 0.6,0 1.2,-0.1 1.8,-0.4 l 0.3,0.8 c -0.8,0.4 -1.4,0.5 -2.2,0.5 -3,0 -5.1,-2.2 -5.1,-5.1 0,-3 2.2,-5.1 5.1,-5.1 3.3,-0.1 5.4,2.2 5.4,4.8 z m -3.9,1.3 v -0.9 c -0.3,-0.2 -0.8,-0.4 -1.5,-0.4 -0.8,0 -1.3,0.3 -1.3,1 0,0.7 0.5,1.1 1.4,1.1 0.5,0 1.1,-0.3 1.4,-0.8 z" />
      <path
         id="path521"
         d="m 143.8,111.3 h -7.1 c 0.1,-2.9 1.9,-4.2 3.8,-5.4 1.3,-0.8 1.7,-1.2 1.7,-1.9 0,-0.8 -0.5,-1.3 -1.9,-1.3 -0.8,0 -1.8,0.4 -2.4,1 l -0.9,-1.1 c 0.9,-0.8 2.2,-1.3 3.4,-1.3 2.1,0 3.4,0.9 3.4,2.7 0,1.5 -0.8,2.2 -2.5,3.2 -1.9,1.1 -2.4,1.8 -2.7,2.7 h 5.3 v 1.4 z" />
    </g>
    <g
       id="g529"
       transform="matrix(0.25527544,0,0,0.25527544,-2.1216743,-17.268573)">
      <path
         id="path525"
         d="m 198.8,93.4 h -1.7 v 2.3 h -1.4 v -2.3 h -2.3 v 2.3 H 192 v -2.3 h -1.7 v -1.3 h 1.7 v -2.7 h -1.7 V 88 h 1.7 v -2.3 h 1.4 V 88 h 2.3 v -2.3 h 1.4 V 88 h 1.7 v 1.3 h -1.7 V 92 h 1.7 z m -3.1,-1.3 v -2.7 h -2.3 v 2.7 z" />
      <path
         id="path527"
         d="m 197.8,109.7 c 0,2 -1.4,3.1 -3.7,3.1 -1.4,0 -2.9,-0.6 -3.6,-1.6 l 1.1,-1 c 0.6,0.8 1.5,1.1 2.4,1.1 1.6,0 2.2,-0.6 2.2,-1.6 0,-1 -0.8,-1.5 -1.8,-1.5 h -0.9 v -1.4 h 0.9 c 0.9,0 1.4,-0.6 1.4,-1.4 0,-0.6 -0.4,-1.4 -1.9,-1.4 -0.8,0 -1.4,0.3 -2,0.9 l -1.1,-1 c 0.8,-0.9 1.8,-1.3 3.1,-1.3 1.9,0 3.4,1 3.4,2.7 0,1.2 -0.5,1.8 -1.2,2.2 1.1,0.2 1.7,1 1.7,2.2 z" />
    </g>
    <g
       id="g535"
       transform="matrix(0.25527544,0,0,0.25527544,-2.1216743,-17.268573)">
      <path
         id="path531"
         d="m 252,92.7 c 0,1.6 -0.9,2.7 -2.8,2.9 V 97 h -1.5 v -1.4 c -1.2,-0.2 -2.3,-0.7 -2.9,-1.6 l 1.1,-1 c 0.7,0.8 1.6,1.1 2.5,1.1 1.4,0 2,-0.5 2,-1.3 0,-0.8 -0.6,-1.1 -2.2,-1.6 -2.1,-0.6 -3.1,-1.1 -3.1,-2.9 0,-1.5 1.1,-2.4 2.5,-2.6 v -1.5 h 1.5 v 1.5 c 1,0.2 1.8,0.6 2.5,1.3 l -1,1 c -0.7,-0.6 -1.3,-1 -2.3,-1 -1.1,0 -1.6,0.5 -1.6,1.1 0,0.7 0.4,1 2.1,1.5 2,0.8 3.2,1.3 3.2,3.1 z" />
      <path
         id="path533"
         d="m 252.5,110.5 h -1.3 v 2.2 h -1.4 v -2.2 h -5.4 v -1.4 l 5.1,-6.3 h 1.7 v 6.4 h 1.3 z m -2.7,-6.1 c -0.2,0.3 -0.6,0.8 -0.9,1.2 L 247,108 c -0.3,0.4 -0.7,0.9 -0.9,1.1 0.3,0 1.1,0 1.6,0 h 2.1 v -2.9 c -0.1,-0.5 0,-1.4 0,-1.8 z" />
    </g>
    <g
       id="g541"
       transform="matrix(0.25527544,0,0,0.25527544,-2.1216743,-17.268573)">
      <path
         id="path537"
         d="m 301.2,88.7 c 0,1.8 -1,3.1 -2.5,3.1 -1.5,0 -2.4,-1.3 -2.4,-3.1 0,-1.8 1,-3.1 2.5,-3.1 1.4,0 2.4,1.3 2.4,3.1 z m -1.3,0 c 0,-1.1 -0.4,-1.9 -1.2,-1.9 -0.8,0 -1.2,0.7 -1.2,1.8 0,1.1 0.4,1.9 1.2,1.9 0.8,0 1.2,-0.8 1.2,-1.8 z m 6.4,-3 -6.1,9.9 h -1.4 l 6.1,-9.9 z m 2.4,7 c 0,1.8 -1,3.1 -2.5,3.1 -1.4,0 -2.4,-1.3 -2.4,-3.1 0,-1.8 1,-3.1 2.5,-3.1 1.5,0.1 2.4,1.3 2.4,3.1 z m -1.2,0.1 c 0,-1.1 -0.4,-1.9 -1.2,-1.9 -0.8,0 -1.2,0.7 -1.2,1.8 0,1.1 0.4,1.9 1.2,1.9 0.7,0 1.2,-0.8 1.2,-1.8 z" />
      <path
         id="path539"
         d="m 306.1,109.3 c 0,2.4 -1.6,3.5 -3.9,3.5 -1.3,0 -2.4,-0.3 -3.5,-1 l 0.7,-1.2 c 0.8,0.5 1.9,0.8 2.8,0.8 1.5,0 2.4,-0.8 2.4,-2 0,-1.2 -0.8,-1.8 -2,-1.8 -0.8,0 -1.4,0.2 -1.9,0.6 l -1.6,-0.6 0.3,-4.8 h 6.1 v 1.4 h -4.8 l -0.2,2.5 c 0.6,-0.3 1.2,-0.5 2.1,-0.5 2.4,0 3.5,1.3 3.5,3.1 z" />
    </g>
    <g
       id="g547"
       transform="matrix(0.25527544,0,0,0.25527544,-2.1216743,-17.268573)">
      <path
         id="path543"
         d="m 359.9,90.3 h -1.6 l -1.8,-3 -1.8,3 h -1.6 l 2.9,-4.5 h 1.1 z" />
      <path
         id="path545"
         d="m 360.4,109.5 c 0,2.2 -1.7,3.3 -3.9,3.3 -2.1,0 -3.7,-1.1 -3.7,-4 0,-2.6 1.4,-6.1 6.2,-6.3 v 1.4 c -2.3,0.1 -3.8,1.1 -4.5,3.2 0.7,-0.6 1.4,-0.8 2.6,-0.8 1.8,0.1 3.3,1.1 3.3,3.2 z m -1.5,0.1 c 0,-1.2 -0.8,-1.7 -2.3,-1.7 -1.4,0 -2.3,0.6 -2.3,1.7 0,1 0.8,1.8 2.3,1.8 1.5,0 2.3,-0.7 2.3,-1.8 z" />
    </g>
    <g
       id="g553"
       transform="matrix(0.25527544,0,0,0.25527544,-2.1216743,-17.268573)">
      <path
         id="path549"
         d="m 414.9,95.7 h -1.7 l -0.8,-0.9 c -0.7,0.7 -1.7,1.1 -2.8,1.1 -2.1,0 -3.1,-1.1 -3.1,-2.7 0,-1.3 0.7,-2.2 2.1,-2.9 l -0.2,-0.2 c -0.7,-0.8 -0.9,-1.4 -0.9,-2.1 0,-1.4 1.1,-2.3 2.8,-2.3 0.9,0 1.8,0.3 2.7,0.9 l -0.7,1.2 C 411.5,87.2 411,87 410.2,87 c -0.8,0 -1.1,0.3 -1.1,0.9 0,0.4 0.1,0.7 0.5,1.2 l 2.9,3.6 c 0.3,-0.5 0.5,-1.1 0.7,-1.6 l 1.3,0.4 c -0.2,0.8 -0.6,1.7 -1.1,2.4 z m -3.4,-2 -2.1,-2.5 c -0.9,0.5 -1.4,1 -1.4,1.9 0,0.8 0.5,1.4 1.7,1.4 0.7,0 1.3,-0.3 1.8,-0.8 z" />
      <path
         id="path551"
         d="m 413.6,104.3 c -1.7,1.9 -3.2,4.7 -3.3,8.4 h -1.5 c 0.1,-3.4 1.2,-6.1 3.1,-8.5 h -5.2 v -1.4 h 6.9 z" />
    </g>
    <g
       id="g559"
       transform="matrix(0.25527544,0,0,0.25527544,-2.1216743,-17.268573)">
      <path
         id="path555"
         d="m 467.3,89.5 -0.6,1.1 -1.8,-1.3 0.2,2.2 h -1.2 l 0.2,-2.2 -1.8,1.3 -0.6,-1.1 2,-0.9 -2,-0.9 0.6,-1.1 1.8,1.3 -0.2,-2.2 h 1.2 l -0.2,2.1 1.7,-1.3 0.6,1.1 -2,0.9 z" />
      <path
         id="path557"
         d="m 468.4,109.8 c 0,2 -1.5,3 -3.9,3 -2.4,0 -3.9,-1.1 -3.9,-3 0,-1.2 0.6,-2 1.8,-2.5 -1,-0.4 -1.3,-1.3 -1.3,-1.9 0,-1.9 1.5,-2.8 3.5,-2.8 1.8,0 3.5,0.9 3.5,2.8 0,0.6 -0.3,1.5 -1.3,1.9 0.9,0.4 1.6,1.2 1.6,2.5 z m -1.5,0 c 0,-1 -0.8,-1.7 -2.4,-1.7 -1.6,0 -2.4,0.6 -2.4,1.6 0,1 0.9,1.7 2.4,1.7 1.6,0.1 2.4,-0.6 2.4,-1.6 z m -0.4,-4.4 c 0,-0.8 -0.5,-1.5 -2,-1.5 -1.4,0 -2,0.7 -2,1.4 0,0.8 0.8,1.4 2,1.4 1.3,0 2,-0.6 2,-1.3 z" />
    </g>
    <g
       id="g565"
       transform="matrix(0.25527544,0,0,0.25527544,-2.1216743,-17.268573)">
      <path
         id="path561"
         d="m 520.3,96.6 -0.7,0.6 c -1.4,-1.3 -2.8,-3.2 -2.8,-5.8 0,-2.7 1.3,-4.5 2.8,-5.9 l 0.7,0.6 c -1.3,1.4 -2,3 -2,5.2 0.1,2.4 0.8,3.9 2,5.3 z" />
      <path
         id="path563"
         d="m 522.2,106.6 c 0,2.6 -1.4,6.1 -6.2,6.3 v -1.4 c 2.3,-0.1 3.8,-1.1 4.5,-3.2 -0.7,0.6 -1.4,0.8 -2.6,0.8 -1.8,0 -3.3,-1 -3.3,-3.1 0,-2.2 1.7,-3.3 3.9,-3.3 2.1,-0.1 3.7,1 3.7,3.9 z m -1.5,-0.7 c 0,-1 -0.8,-1.8 -2.3,-1.8 -1.5,0 -2.3,0.7 -2.3,1.8 0,1.2 0.8,1.7 2.3,1.7 1.4,0 2.3,-0.6 2.3,-1.7 z" />
    </g>
    <g
       id="g571"
       transform="matrix(0.25527544,0,0,0.25527544,-2.1216743,-17.268573)">
      <path
         id="path567"
         d="m 574.2,91.3 c 0,2.7 -1.3,4.5 -2.8,5.9 l -0.7,-0.6 c 1.3,-1.4 2,-3 2,-5.2 0,-2.3 -0.8,-3.9 -2,-5.2 l 0.7,-0.6 c 1.4,1.3 2.8,3.2 2.8,5.7 z" />
      <path
         id="path569"
         d="m 576.4,107.7 c 0,3 -1.4,5.1 -3.9,5.1 -2.6,0 -3.9,-2.1 -3.9,-5.1 0,-3 1.4,-5.1 3.9,-5.1 2.6,0 3.9,2.1 3.9,5.1 z m -1.5,0 c 0,-2.1 -0.7,-3.7 -2.4,-3.7 -1.7,0 -2.4,1.6 -2.4,3.7 0,2.1 0.7,3.7 2.4,3.7 1.8,0 2.4,-1.6 2.4,-3.7 z" />
    </g>
    <g
       id="g577"
       transform="matrix(0.25527544,0,0,0.25527544,-2.1216743,-17.268573)">
      <path
         id="path573"
         d="m 630,98.2 h -7 v -1.3 h 7.1 v 1.3 z" />
      <path
         id="path575"
         d="m 628.3,108.2 h -3.5 v -1.4 h 3.5 z" />
    </g>
    <g
       id="g583"
       transform="matrix(0.25527544,0,0,0.25527544,-2.1216743,-17.268573)">
      <path
         id="path579"
         d="m 683.9,91.5 h -2.7 v 2.8 h -1.5 V 91.5 H 677 v -1.4 h 2.7 v -2.8 h 1.5 v 2.8 h 2.7 z" />
      <path
         id="path581"
         d="m 683.6,106.9 h -6.1 v -1.4 h 6.1 z m 0,3.2 h -6.1 v -1.4 h 6.1 z" />
    </g>
    <g
       id="g599"
       transform="matrix(0.25527544,0,0,0.25527544,-2.1216743,-17.268573)">
      <path
         id="path597"
         d="m 115.7,143.2 c 0,1.7 -0.6,3.2 -1.5,4.1 l 0.7,1 -1.2,0.8 -0.7,-1 c -0.4,0.2 -0.9,0.3 -1.5,0.3 -2.6,0 -4.2,-2.1 -4.2,-5.1 0,-3 1.6,-5.1 4.2,-5.1 2.6,-0.1 4.2,2 4.2,5 z m -1.5,0 c 0,-2.2 -0.9,-3.6 -2.7,-3.6 -1.7,0 -2.7,1.4 -2.7,3.6 0,2.2 0.9,3.7 2.7,3.7 0.3,0 0.5,0 0.7,-0.1 l -0.7,-1.1 1.2,-0.8 0.7,1.1 c 0.5,-0.6 0.8,-1.6 0.8,-2.8 z" />
    </g>
    <g
       id="g603"
       transform="matrix(0.25527544,0,0,0.25527544,-2.1216743,-17.268573)">
      <path
         id="path601"
         d="m 170.9,138.2 -2,9.9 h -1.5 l -1.5,-6.4 c -0.1,-0.3 -0.2,-1.1 -0.3,-1.3 0,0.2 -0.2,1 -0.3,1.3 l -1.6,6.4 h -1.5 l -2,-9.9 h 1.5 l 1.2,6.3 c 0.1,0.3 0.2,1 0.2,1.3 0.1,-0.3 0.2,-1 0.3,-1.3 l 1.6,-6.3 h 1.3 l 1.6,6.4 c 0.1,0.3 0.2,0.8 0.2,1.1 0.1,-0.4 0.2,-0.9 0.2,-1.2 l 1.2,-6.4 h 1.4 z" />
    </g>
    <g
       id="g607"
       transform="matrix(0.25527544,0,0,0.25527544,-2.1216743,-17.268573)">
      <path
         id="path605"
         d="m 223,148.2 h -6.6 v -9.9 h 6.4 v 1.4 h -4.9 v 2.5 h 2.8 v 1.4 h -2.8 v 3.1 h 5.1 z" />
    </g>
    <g
       id="g611"
       transform="matrix(0.25527544,0,0,0.25527544,-2.1216743,-17.268573)">
      <path
         id="path609"
         d="m 277.4,141.2 c 0,1.6 -0.8,2.6 -2.2,2.9 l 2,4.1 h -1.7 l -2,-3.9 h -2.2 v 3.9 h -1.5 v -9.9 h 4.4 c 1.8,-0.1 3.2,0.9 3.2,2.9 z m -1.5,0.1 c 0,-1 -0.7,-1.6 -1.7,-1.6 h -2.9 v 3.2 h 2.9 c 1,-0.1 1.7,-0.6 1.7,-1.6 z" />
    </g>
    <g
       id="g615"
       transform="matrix(0.25527544,0,0,0.25527544,-2.1216743,-17.268573)">
      <path
         id="path613"
         d="m 331.1,139.7 h -2.9 v 8.5 h -1.5 v -8.5 h -2.9 v -1.5 h 7.3 z" />
    </g>
    <g
       id="g619"
       transform="matrix(0.25527544,0,0,0.25527544,-2.1216743,-17.268573)">
      <path
         id="path617"
         d="m 385.8,138.2 -3.6,6 v 3.9 h -1.5 v -3.9 l -3.6,-6 h 1.7 l 1.5,2.7 c 0.3,0.6 0.9,1.6 1,2 0.2,-0.4 0.7,-1.3 1,-2 l 1.6,-2.8 h 1.9 z" />
    </g>
    <g
       id="g623"
       transform="matrix(0.25527544,0,0,0.25527544,-2.1216743,-17.268573)">
      <path
         id="path621"
         d="m 439.3,144 c 0,2.8 -1.3,4.3 -3.8,4.3 -2.5,0 -3.7,-1.6 -3.7,-4.3 v -5.8 h 1.5 v 5.7 c 0,1.9 0.8,2.9 2.3,2.9 1.6,0 2.3,-1 2.3,-2.8 v -5.8 h 1.5 v 5.8 z" />
    </g>
    <g
       id="g627"
       transform="matrix(0.25527544,0,0,0.25527544,-2.1216743,-17.268573)">
      <path
         id="path625"
         d="m 490.2,148.2 h -1.5 v -9.9 h 1.5 z" />
    </g>
    <g
       id="g631"
       transform="matrix(0.25527544,0,0,0.25527544,-2.1216743,-17.268573)">
      <path
         id="path629"
         d="m 547.7,143.2 c 0,3.1 -1.7,5.1 -4.3,5.1 -2.5,0 -4.2,-2 -4.2,-5.1 0,-3.1 1.7,-5.1 4.2,-5.1 2.6,0 4.3,2 4.3,5.1 z m -1.5,0 c 0,-2.3 -1.2,-3.7 -2.8,-3.7 -1.6,0 -2.7,1.4 -2.7,3.6 0,2.2 1.1,3.7 2.7,3.7 1.7,0.1 2.8,-1.3 2.8,-3.6 z" />
    </g>
    <g
       id="g635"
       transform="matrix(0.25527544,0,0,0.25527544,-2.1216743,-17.268573)">
      <path
         id="path633"
         d="m 601.5,141.4 c 0,2 -1.4,3.1 -3.3,3.1 h -2.6 v 3.7 h -1.5 v -9.9 h 4.2 c 1.8,-0.1 3.2,1 3.2,3.1 z m -1.5,0 c 0,-1.1 -0.7,-1.7 -1.7,-1.7 h -2.7 v 3.4 h 2.7 c 1.1,0 1.7,-0.7 1.7,-1.7 z" />
    </g>
    <g
       id="g641"
       transform="matrix(0.25527544,0,0,0.25527544,-2.1216743,-17.268573)">
      <path
         id="path637"
         d="m 655.8,151.2 c -2.3,0 -3.3,-1 -3.3,-3 v -0.9 c 0,-1 -0.2,-1.2 -0.8,-1.2 h -0.3 v -1.3 h 0.3 c 0.6,0 0.8,-0.3 0.8,-1.2 v -0.9 c 0,-2 1,-3 3.3,-3 v 1.1 c -1.4,0.1 -1.8,0.7 -1.8,1.8 v 0.7 c 0,1.3 -0.3,1.9 -1.1,2.2 0.8,0.3 1.1,0.9 1.1,2.2 v 0.7 c 0,1.1 0.4,1.7 1.8,1.8 z" />
      <path
         id="path639"
         d="m 655.3,168.2 h -3.1 v -11.5 h 3.1 v 1.2 h -1.7 v 9.1 h 1.7 z" />
    </g>
    <g
       id="g647"
       transform="matrix(0.25527544,0,0,0.25527544,-2.1216743,-17.268573)">
      <path
         id="path643"
         d="m 709.6,146.1 h -0.3 c -0.6,0 -0.8,0.3 -0.8,1.2 v 0.9 c 0,2 -1,3 -3.3,3 v -1.1 c 1.4,-0.1 1.8,-0.7 1.8,-1.8 v -0.7 c 0,-1.3 0.3,-1.9 1.1,-2.2 -0.8,-0.3 -1.1,-0.9 -1.1,-2.2 v -0.7 c 0,-1.1 -0.4,-1.7 -1.8,-1.8 v -1.1 c 2.3,0 3.3,1 3.3,3 v 0.9 c 0,1 0.2,1.2 0.8,1.2 h 0.3 z" />
      <path
         id="path645"
         d="m 708.8,168.2 h -3.1 V 167 h 1.7 v -9 h -1.7 v -1.2 h 3.1 z" />
    </g>
    <g
       id="g653"
       transform="matrix(0.25527544,0,0,0.25527544,-2.1216743,-17.268573)">
      <path
         id="path649"
         d="m 759.33775,152.3 h -1.3 v -14 h 1.3 z" />
      <path
         id="path651"
         d="m 761.53775,168 h -1.5 l -4.4,-12.5 h 1.5 z" />
    </g>
    <g
       id="g673"
       transform="matrix(0.25527544,0,0,0.25527544,-2.1216743,-17.268573)">
      <path
         id="path671"
         d="m 129.4,202.2 h -1.6 l -0.8,-2.4 h -4 l -0.8,2.4 h -1.5 l 3.6,-9.9 h 1.6 z m -2.9,-3.7 -0.8,-2.3 c -0.2,-0.7 -0.6,-1.9 -0.8,-2.3 -0.1,0.4 -0.5,1.6 -0.7,2.3 l -0.8,2.3 z" />
    </g>
    <g
       id="g677"
       transform="matrix(0.25527544,0,0,0.25527544,-2.1216743,-17.268573)">
      <path
         id="path675"
         d="m 182.5,199.3 c 0,1.8 -1.1,3 -3.7,3 -1.4,0 -2.7,-0.6 -3.5,-1.6 l 1.1,-1 c 0.7,0.7 1.6,1.2 2.6,1.2 1.4,0 2.1,-0.5 2.1,-1.4 0,-0.8 -0.6,-1.1 -2.2,-1.6 -2.1,-0.6 -3.1,-1.1 -3.1,-2.9 0,-1.7 1.4,-2.8 3.3,-2.8 1.3,0 2.4,0.5 3.2,1.3 l -1,1.1 c -0.6,-0.6 -1.3,-0.9 -2.3,-0.9 -1.2,0 -1.7,0.6 -1.7,1.2 0,0.7 0.5,1 2.2,1.5 1.8,0.5 3,1.2 3,2.9 z" />
    </g>
    <g
       id="g681"
       transform="matrix(0.25527544,0,0,0.25527544,-2.1216743,-17.268573)">
      <path
         id="path679"
         d="m 237,197.2 c 0,3.5 -2.2,5 -4.8,5 h -2.7 v -9.9 h 2.7 c 2.7,-0.1 4.8,1.4 4.8,4.9 z m -1.5,0 c 0,-2.1 -1,-3.5 -3.3,-3.5 H 231 v 7 h 1.2 c 2.3,0 3.3,-1.4 3.3,-3.5 z" />
    </g>
    <g
       id="g685"
       transform="matrix(0.25527544,0,0,0.25527544,-2.1216743,-17.268573)">
      <path
         id="path683"
         d="m 290.6,193.7 h -4.9 v 2.6 h 2.8 v 1.5 h -2.8 v 4.4 h -1.5 v -9.9 h 6.4 z" />
    </g>
    <g
       id="g689"
       transform="matrix(0.25527544,0,0,0.25527544,-2.1216743,-17.268573)">
      <path
         id="path687"
         d="m 345,198.3 c 0,2.6 -1.6,4 -3.8,4 -2.6,0 -4.2,-2.1 -4.2,-5.1 0,-3 1.6,-5.1 4.2,-5.1 1.6,0 2.7,0.7 3.4,1.9 l -1.3,0.8 c -0.5,-0.8 -1,-1.2 -2.1,-1.2 -1.7,0 -2.7,1.4 -2.7,3.6 0,2.2 0.9,3.6 2.7,3.6 1.6,0 2.3,-1.1 2.3,-2.2 v 0 h -1.6 v -1.4 h 3.1 z" />
    </g>
    <g
       id="g693"
       transform="matrix(0.25527544,0,0,0.25527544,-2.1216743,-17.268573)">
      <path
         id="path691"
         d="m 398.8,202.2 h -1.5 v -4.4 h -4.6 v 4.4 h -1.5 v -9.9 h 1.5 v 4 h 4.6 v -4 h 1.5 z" />
    </g>
    <g
       id="g697"
       transform="matrix(0.25527544,0,0,0.25527544,-2.1216743,-17.268573)">
      <path
         id="path695"
         d="m 452.1,198.3 c 0,2.7 -1.1,4.1 -3.5,4.1 -1.9,0 -3,-1 -3.5,-2.6 l 1.4,-0.4 c 0.4,1 1,1.6 2.1,1.6 1.4,0 2,-0.8 2,-2.7 v -5.9 h 1.5 z" />
    </g>
    <g
       id="g701"
       transform="matrix(0.25527544,0,0,0.25527544,-2.1216743,-17.268573)">
      <path
         id="path699"
         d="m 507.3,202.2 h -1.7 l -2.8,-5.1 -1.8,2.2 v 2.9 h -1.4 v -9.9 h 1.4 v 3.4 c 0,0.4 0,1.4 0,1.8 0.2,-0.3 0.8,-1.1 1.1,-1.5 l 2.9,-3.7 h 1.7 l -2.9,3.6 z" />
    </g>
    <g
       id="g705"
       transform="matrix(0.25527544,0,0,0.25527544,-2.1216743,-17.268573)">
      <path
         id="path703"
         d="m 560.5,202.2 h -6.4 v -9.9 h 1.5 v 8.5 h 4.9 z" />
    </g>
    <g
       id="g711"
       transform="matrix(0.25527544,0,0,0.25527544,-2.1216743,-17.268573)">
      <path
         id="path707"
         d="m 614.1,197.2 c 0,0.6 -0.5,1.1 -1.1,1.1 -0.6,0 -1.1,-0.5 -1.1,-1.1 0,-0.6 0.5,-1.1 1.1,-1.1 0.6,0 1.1,0.5 1.1,1.1 z m 0,5.5 c 0,0.6 -0.5,1.1 -1.1,1.1 -0.6,0 -1.1,-0.5 -1.1,-1.1 0,-0.6 0.5,-1.1 1.1,-1.1 0.6,0 1.1,0.5 1.1,1.1 z" />
      <path
         id="path709"
         d="m 614.1,214.2 c 0,0.6 -0.5,1.1 -1.1,1.1 -0.6,0 -1.1,-0.5 -1.1,-1.1 0,-0.6 0.5,-1.1 1.1,-1.1 0.6,0 1.1,0.5 1.1,1.1 z m -0.1,4.5 -1.1,3.8 h -1 l 0.2,-3.8 z" />
    </g>
    <g
       id="g717"
       transform="matrix(0.25527544,0,0,0.25527544,-2.1216743,-17.268573)">
      <path
         id="path713"
         d="m 666.3,193.7 -0.2,3.6 h -1.9 l 1.1,-3.6 z m 3.3,0 -0.2,3.6 h -1.9 l 1.1,-3.6 z" />
      <path
         id="path715"
         d="m 668,210.8 -0.2,3.6 h -1.9 l 1.1,-3.6 z" />
    </g>
    <g
       id="g733"
       transform="matrix(0.25527544,0,0,0.25527544,-2.1216743,-17.268573)">
      <path
         id="path731"
         d="m 155.7,256.2 h -7.5 v -1.4 l 4.8,-5.9 c 0.3,-0.4 0.9,-1 1.1,-1.3 -0.4,0 -1.4,0 -2,0 h -3.7 v -1.4 h 7.3 v 1.4 l -4.8,5.9 c -0.3,0.4 -0.9,1 -1.1,1.3 0.4,0 1.4,0 2,0 h 3.9 z" />
    </g>
    <g
       id="g737"
       transform="matrix(0.25527544,0,0,0.25527544,-2.1216743,-17.268573)">
      <path
         id="path735"
         d="m 210,256.2 h -1.8 l -1.1,-1.9 c -0.4,-0.6 -0.9,-1.6 -1.1,-2 -0.2,0.4 -0.7,1.4 -1.1,2 l -1.1,1.9 h -1.7 l 3.1,-5.1 -2.9,-4.8 h 1.8 l 0.9,1.6 c 0.3,0.6 0.9,1.7 1.1,2 0.2,-0.4 0.7,-1.4 1.1,-2 l 0.9,-1.6 h 1.7 L 207,251 Z" />
    </g>
    <g
       id="g741"
       transform="matrix(0.25527544,0,0,0.25527544,-2.1216743,-17.268573)">
      <path
         id="path739"
         d="m 263.8,254.4 c -0.7,1.2 -1.9,1.9 -3.4,1.9 -2.6,0 -4.2,-2.1 -4.2,-5.1 0,-3 1.6,-5.1 4.2,-5.1 1.6,0 2.7,0.7 3.4,1.9 l -1.3,0.8 c -0.5,-0.8 -1,-1.2 -2.1,-1.2 -1.7,0 -2.7,1.4 -2.7,3.6 0,2.2 0.9,3.6 2.7,3.6 1,0 1.7,-0.4 2.2,-1.2 z" />
    </g>
    <g
       id="g745"
       transform="matrix(0.25527544,0,0,0.25527544,-2.1216743,-17.268573)">
      <path
         id="path743"
         d="m 318.2,246.2 -3.4,9.9 h -1.6 l -3.4,-9.9 h 1.6 l 2.1,6.3 c 0.2,0.6 0.5,1.5 0.6,1.8 0.1,-0.4 0.4,-1.2 0.6,-1.8 l 2,-6.3 z" />
    </g>
    <g
       id="g749"
       transform="matrix(0.25527544,0,0,0.25527544,-2.1216743,-17.268573)">
      <path
         id="path747"
         d="m 371.8,253.1 c 0,2 -1.2,3 -3.4,3 h -3.9 v -9.9 h 4.1 c 1.7,0 2.8,0.9 2.8,2.6 0,1 -0.5,1.6 -1.3,2 0.9,0.2 1.7,1 1.7,2.3 z m -1.8,-4.2 c 0,-0.7 -0.4,-1.3 -1.4,-1.3 h -2.7 v 2.6 h 2.7 c 1,0 1.4,-0.6 1.4,-1.3 z m 0.4,4.3 c 0,-1 -0.6,-1.6 -1.8,-1.6 h -2.7 v 3.3 h 2.7 c 1.3,-0.1 1.8,-0.8 1.8,-1.7 z" />
    </g>
    <g
       id="g753"
       transform="matrix(0.25527544,0,0,0.25527544,-2.1216743,-17.268573)">
      <path
         id="path751"
         d="m 425.8,256.2 h -1.4 l -4,-6.2 c -0.2,-0.4 -0.6,-1 -0.7,-1.2 0,0.4 0,1.7 0,2.3 v 5.1 h -1.4 v -9.9 h 1.5 l 3.8,6.1 c 0.3,0.4 0.7,1.1 0.8,1.4 0,-0.4 0,-1.8 0,-2.3 v -5.1 h 1.4 z" />
    </g>
    <g
       id="g757"
       transform="matrix(0.25527544,0,0,0.25527544,-2.1216743,-17.268573)">
      <path
         id="path755"
         d="M 480.4,256.2 H 479 V 251 c 0,-0.6 0,-1.5 0,-1.7 -0.1,0.3 -0.4,1 -0.6,1.6 l -2.4,5.6 -2.4,-5.6 c -0.2,-0.6 -0.5,-1.3 -0.6,-1.6 0,0.3 0,1.1 0,1.7 v 5.2 h -1.4 v -9.9 h 1.5 l 2.2,5.3 c 0.2,0.6 0.6,1.3 0.7,1.7 0.1,-0.4 0.4,-1.1 0.7,-1.7 l 2.2,-5.3 h 1.6 v 9.9 z" />
    </g>
    <g
       id="g763"
       transform="matrix(0.25527544,0,0,0.25527544,-2.1216743,-17.268573)">
      <path
         id="path761"
         d="m 531,250.7 -1.1,3.8 h -1 l 0.2,-3.8 z" />
    </g>
    <g
       id="g769"
       transform="matrix(0.25527544,0,0,0.25527544,-2.1216743,-17.268573)">
      <path
         id="path767"
         d="m 585.1,251.7 c 0,0.6 -0.5,1.1 -1.1,1.1 -0.6,0 -1.1,-0.5 -1.1,-1.1 0,-0.6 0.5,-1.1 1.1,-1.1 0.6,0 1.1,0.5 1.1,1.1 z" />
    </g>
    <g
       id="g775"
       transform="matrix(0.25527544,0,0,0.25527544,-2.1216743,-17.268573)">
      <path
         id="path773"
         d="M 640.9,247.5 636.5,260 H 635 l 4.4,-12.5 z" />
    </g>
    <path
       style="stroke-width:0.255275"
       id="path901"
       d="m 185.11977,7.2458507 -1.3019,-1.3019047 1.3019,-1.3019047 h 2.42513 v 2.6038094 z m -0.94451,-1.3019047 1.04663,1.0466296 h 2.06773 V 4.8973173 h -2.06773 z m 1.83799,0.1786934 -0.58715,0.5871329 -0.17868,-0.1786925 0.58713,-0.5871338 -0.58713,-0.5871329 0.17868,-0.1786934 0.58715,0.5871338 0.58713,-0.5871338 0.17869,0.1786934 -0.58714,0.5871329 0.58714,0.5871338 -0.17869,0.1786925 z" />
    <path
       style="stroke-width:0.255275"
       id="path979"
       d="m 5.5876443,18.291297 -0.485023,0.510551 h 2.5527541 v 0.229748 H 5.1026213 l 0.485023,0.51055 -0.127638,0.127638 -0.7913536,-0.740299 v 0.663716 H 4.4389048 v -1.378487 h 0.2297479 v 0.663717 l 0.7913536,-0.7403 z m 2.0677311,1.404014 v 1.378488 H 7.4256275 v -0.663716 l -0.7913536,0.740298 -0.127638,-0.127637 0.485023,-0.510551 H 4.4389048 v -0.229748 h 2.5527541 l -0.485023,-0.510551 0.127638,-0.127637 0.7913536,0.740298 V 19.72084 h 0.2297479 z" />
    <path
       style="stroke-width:0.255275"
       id="path1021"
       d="m 4.3112668,33.046133 1.4295428,-1.429542 1.4295428,1.429542 H 6.4555805 v 0.536078 H 5.0260387 V 33.046133 Z M 5.7408096,31.922921 4.7962908,32.86744 h 0.4339676 v 0.510551 H 6.2513608 V 32.86744 h 0.4339676 z m -0.7147709,2.067731 h 1.4295418 v 0.714771 H 5.0260387 Z m 0.2042197,0.20422 v 0.306331 h 1.0211024 v -0.306331 z" />
    <path
       style="fill:#ffffff;stroke-width:0.255275"
       id="path1041"
       d="m 180.70034,33.615806 0.76583,-0.765826 v 0.638188 h 1.81246 v -1.123212 h -0.89347 v -0.255275 h 1.17428 v 1.633762 h -2.06774 v 0.638189 z"
       class="st7" />
    <path
       style="stroke-width:0.255275"
       id="path1057"
       d="M 4.2347556,46.831006 5.74088,45.324882 7.2470054,46.831006 H 6.5067063 v 1.327433 H 5.0005819 V 46.831006 Z M 5.7153528,45.65674 4.7197786,46.652314 h 0.4594958 v 1.301905 H 6.2514312 V 46.652314 H 6.710927 Z" />
    <path
       style="stroke-width:0.255275"
       id="path1071"
       d="m 173.52477,47.225977 1.50613,-1.506126 1.50612,1.506126 h -0.7403 v 1.327432 h -1.50612 v -1.327432 z m 1.4806,-1.174268 -0.99557,0.995574 h 0.45949 v 1.301905 h 1.07216 v -1.301905 h 0.4595 z" />
    <path
       style="stroke-width:0.255275"
       id="path1115"
       d="m 24.299335,59.365031 v 2.246423 h -2.220896 v -2.246423 z m -1.225322,1.021101 v -0.816881 h -0.816882 v 0.816881 z m 0,0.204221 h -0.816882 v 0.816882 h 0.816882 z m 0.20422,-0.204221 h 0.842409 v -0.842409 h -0.842409 z m 0,0.204221 v 0.816882 h 0.842409 v -0.816882 z" />
    <path
       style="stroke-width:0.255275"
       id="path1125"
       d="m 42.015521,59.416086 v 0.255275 H 41.224167 L 40.0499,62.019896 H 39.028798 V 61.76462 h 0.816882 l 1.174267,-2.348534 z m -1.199795,2.629337 v -0.255275 h 1.225322 v 0.255275 z" />
    <path
       style="stroke-width:0.451066"
       id="path1135"
       d="m 57.474024,61.513419 v -0.902133 h 0.315748 v 0.631492 h 1.172773 v -0.631492 h 0.315748 v 0.902133 z" />
    <path
       style="stroke-width:0.2539"
       id="path1149"
       d="m 142.72162,61.841202 h 0.80813 l 1.16165,-2.348533 h 1.01012 v 0.255275 h -0.80814 l -1.16164,2.348534 h -1.01012 z m 1.76773,0 h 1.21217 v 0.255276 h -1.21217 z" />
    <path
       style="stroke-width:0.2539"
       id="path1159"
       d="m 162.34345,59.696888 v 2.246425 h -2.19706 v -2.246425 z m -1.21217,1.021103 v -0.816882 h -0.80808 v 0.816882 z m 0,0.20422 h -0.80808 v 0.816881 h 0.80808 z m 0.20205,-0.20422 h 0.83336 v -0.842409 h -0.83336 z m 0,0.20422 v 0.816881 h 0.83336 v -0.816881 z" />
    <path
       style="stroke-width:0.2539"
       id="path1169"
       d="m 177.36918,59.850054 h 1.84348 v 0.30633 h -1.84348 z m 0,0.638189 h 1.84348 v 0.30633 h -1.84348 z m 0,0.638188 h 1.84348 v 0.306331 h -1.84348 z m 0,0.638189 h 1.84348 v 0.30633 h -1.84348 z" />
    <path
       style="stroke-width:0.2539"
       id="path1181"
       d="m 195.37658,62.581501 v -0.357386 c -0.37881,-0.05106 -0.68185,-0.229748 -0.90913,-0.536078 l -0.30304,0.178693 -0.12623,-0.229748 0.30304,-0.178693 c -0.0757,-0.178692 -0.10106,-0.357385 -0.10106,-0.536078 0,-0.178693 0.0256,-0.357385 0.10106,-0.536079 l -0.30304,-0.178692 0.12623,-0.229748 0.30304,0.178692 c 0.22728,-0.30633 0.53032,-0.485023 0.90913,-0.536078 v -0.357385 h 0.25257 v 0.357385 c 0.37875,0.05106 0.68179,0.229748 0.90907,0.536078 l 0.30304,-0.178692 0.12629,0.229748 -0.30304,0.178692 c 0.0757,0.178694 0.12628,0.357386 0.12628,0.536079 0,0.178693 -0.0505,0.357386 -0.12628,0.536078 l 0.30304,0.178693 -0.12629,0.229748 -0.30304,-0.178693 c -0.22728,0.30633 -0.53032,0.485024 -0.90907,0.536078 v 0.357386 z m -0.80808,-2.042204 v 0 c -0.0506,0.127638 -0.0757,0.255276 -0.0757,0.408442 0,0.127637 0.0253,0.280802 0.0757,0.40844 v 0 l 0.70708,-0.40844 z m 0.80808,-0.638188 v 0 c -0.27775,0.02553 -0.50504,0.178693 -0.68185,0.408441 v 0 l 0.70714,0.408441 v -0.816882 z m -0.68185,1.659291 v 0 c 0.17681,0.229748 0.4041,0.357385 0.68185,0.40844 v 0 -0.816882 z m 1.64151,-1.25085 v 0 c -0.17683,-0.229748 -0.40408,-0.357385 -0.68185,-0.408441 v 0 0.816882 z m -0.68185,1.65929 v 0 c 0.27777,-0.02553 0.50502,-0.178692 0.68185,-0.40844 v 0 l -0.70709,-0.408442 v 0.816882 z m 0.80807,-0.638188 v 0 c 0.0506,-0.127638 0.0757,-0.255276 0.0757,-0.408441 0,-0.127638 -0.0254,-0.280803 -0.0757,-0.408441 v 0 l -0.70707,0.408441 z" />
    <path
       style="stroke-width:0.255275"
       id="path1183"
       d="M 5.6387702,62.555974 V 62.198588 C 5.255857,62.14753 4.9495265,61.96884 4.7197786,61.66251 L 4.4134481,61.841202 4.28581,61.611454 4.5921405,61.432762 c -0.076578,-0.178693 -0.1021098,-0.357386 -0.1021098,-0.536079 0,-0.178692 0.025529,-0.357386 0.1021098,-0.536078 L 4.28581,60.181912 4.4134481,59.952165 4.7197786,60.130857 C 4.9495265,59.824526 5.255857,59.645834 5.6387702,59.594779 v -0.357386 h 0.2552751 v 0.357386 c 0.3829131,0.05106 0.6892437,0.229747 0.9189916,0.536078 l 0.3063305,-0.178692 0.127638,0.229747 -0.3063305,0.178693 c 0.076578,0.178692 0.127638,0.357386 0.127638,0.536078 0,0.178693 -0.051058,0.357386 -0.127638,0.536079 L 7.2470054,61.611454 7.1193674,61.841202 6.8130369,61.66251 C 6.583289,61.96884 6.2769584,62.147533 5.8940453,62.198588 v 0.357386 z M 4.8218884,60.51377 v 0 c -0.051058,0.127638 -0.076578,0.255275 -0.076578,0.408441 0,0.127638 0.025529,0.280803 0.076578,0.408441 v 0 l 0.7147719,-0.408441 z m 0.8168818,-0.638188 v 0 c -0.2808033,0.02553 -0.5105512,0.178692 -0.6892437,0.40844 v 0 l 0.7147709,0.408441 v -0.816881 z m -0.6892437,1.65929 v 0 c 0.1786925,0.229748 0.4084404,0.357386 0.6892437,0.408441 v 0 -0.816882 z m 1.6592907,-1.25085 v 0 C 6.4301237,60.054274 6.2003758,59.926636 5.9195735,59.875582 v 0 0.816881 z m -0.6892437,1.659291 v 0 c 0.2808023,-0.02553 0.5105502,-0.178693 0.6892437,-0.408441 v 0 L 5.8940453,61.126431 v 0.816882 z m 0.8168807,-0.638189 v 0 c 0.051058,-0.127637 0.076578,-0.255275 0.076578,-0.408441 0,-0.127638 -0.025529,-0.280803 -0.076578,-0.40844 v 0 l -0.7147709,0.40844 z" />
    <text
       xml:space="preserve"
       style="font-style:normal;font-variant:normal;font-weight:normal;font-stretch:normal;font-size:2.72295px;line-height:1.25;font-family:Bahnschrift;-inkscape-font-specification:Bahnschrift;letter-spacing:0px;stroke-width:0.255275"
       x="84.804161"
       y="38.769779"
       id="text2036"><tspan
         sodipodi:role="line"
         id="tspan2034"
         x="84.804161"
         y="38.769779"
         dx="0"
         style="font-size:2.72295px;stroke-width:0.255275">GRAB</tspan></text>
    <text
       id="text2044"
       y="38.769779"
       x="99.199493"
       style="font-style:normal;font-variant:normal;font-weight:normal;font-stretch:normal;font-size:2.72295px;line-height:1.25;font-family:Bahnschrift;-inkscape-font-specification:Bahnschrift;letter-spacing:0px;stroke-width:0.255275"
       xml:space="preserve"><tspan
         style="font-size:2.72295px;stroke-width:0.255275"
         y="38.769779"
         x="99.199493"
         id="tspan2042"
         sodipodi:role="line">LEFT</tspan></text>
    <text
       xml:space="preserve"
       style="font-style:normal;font-variant:normal;font-weight:normal;font-stretch:normal;font-size:2.72295px;line-height:1.25;font-family:Bahnschrift;-inkscape-font-specification:Bahnschrift;letter-spacing:0px;stroke-width:0.255275"
       x="99.199493"
       y="38.769779"
       id="text2048"><tspan
         sodipodi:role="line"
         id="tspan2046"
         x="99.199493"
         y="38.769779"
         style="font-size:2.72295px;stroke-width:0.255275">LEFT</tspan></text>
    <text
       id="text2052"
       y="38.769779"
       x="112.39941"
       style="font-style:normal;font-variant:normal;font-weight:normal;font-stretch:normal;font-size:2.72295px;line-height:1.25;font-family:Bahnschrift;-inkscape-font-specification:Bahnschrift;letter-spacing:0px;stroke-width:0.255275"
       xml:space="preserve"><tspan
         style="font-size:2.72295px;stroke-width:0.255275"
         y="38.769779"
         x="112.39941"
         id="tspan2050"
         sodipodi:role="line">DOWN</tspan></text>
    <text
       xml:space="preserve"
       style="font-style:normal;font-variant:normal;font-weight:normal;font-stretch:normal;font-size:2.72295px;line-height:1.25;font-family:Bahnschrift;-inkscape-font-specification:Bahnschrift;letter-spacing:0px;stroke-width:0.255275"
       x="128.16553"
       y="38.759804"
       id="text2056"><tspan
         sodipodi:role="line"
         id="tspan2054"
         x="128.16553"
         y="38.759804"
         style="font-size:2.72295px;stroke-width:0.255275">UP</tspan></text>
    <text
       id="text2060"
       y="38.769779"
       x="139.84358"
       style="font-style:normal;font-variant:normal;font-weight:normal;font-stretch:normal;font-size:2.72295px;line-height:1.25;font-family:Bahnschrift;-inkscape-font-specification:Bahnschrift;letter-spacing:0px;stroke-width:0.255275"
       xml:space="preserve"><tspan
         style="font-size:2.72295px;stroke-width:0.255275"
         y="38.769779"
         x="139.84358"
         id="tspan2058"
         sodipodi:role="line">RIGHT</tspan></text>
    <text
       id="text2064"
       y="51.225834"
       x="105.54352"
       style="font-style:normal;font-variant:normal;font-weight:normal;font-stretch:normal;font-size:2.72295px;line-height:1.25;font-family:Bahnschrift;-inkscape-font-specification:Bahnschrift;letter-spacing:0px;stroke-width:0.255275"
       xml:space="preserve"><tspan
         style="font-size:2.72295px;stroke-width:0.255275"
         y="51.225834"
         x="105.54352"
         id="tspan2062"
         sodipodi:role="line">DOWN</tspan><tspan
         style="font-size:2.72295px;stroke-width:0.255275"
         y="54.62952"
         x="105.54352"
         sodipodi:role="line"
         id="tspan2070">LEFT</tspan></text>
    <text
       xml:space="preserve"
       style="font-style:normal;font-variant:normal;font-weight:normal;font-stretch:normal;font-size:2.72295px;line-height:1.25;font-family:Bahnschrift;-inkscape-font-specification:Bahnschrift;letter-spacing:0px;stroke-width:0.255275"
       x="119.16727"
       y="51.215862"
       id="text2068"><tspan
         sodipodi:role="line"
         id="tspan2066"
         x="119.16727"
         y="51.215862"
         style="font-size:2.72295px;stroke-width:0.255275">DOWN</tspan><tspan
         sodipodi:role="line"
         x="119.16727"
         y="54.619549"
         style="font-size:2.72295px;stroke-width:0.255275"
         id="tspan2072">RIGHT</tspan></text>
    <text
       xml:space="preserve"
       style="font-style:normal;font-variant:normal;font-weight:normal;font-stretch:normal;font-size:2.72295px;line-height:1.25;font-family:Bahnschrift;-inkscape-font-specification:Bahnschrift;text-align:center;letter-spacing:0px;text-anchor:middle;stroke-width:0.255275"
       x="126.5386"
       y="23.62858"
       id="text2076"><tspan
         sodipodi:role="line"
         x="126.5386"
         y="23.62858"
         style="font-size:2.72295px;text-align:center;text-anchor:middle;stroke-width:0.255275"
         id="tspan2078">INV</tspan><tspan
         sodipodi:role="line"
         x="126.5386"
         y="27.032269"
         style="font-size:2.72295px;text-align:center;text-anchor:middle;stroke-width:0.255275"
         id="tspan2102">MENU</tspan></text>
    <text
       id="text2084"
       y="51.215862"
       x="150.52959"
       style="font-style:normal;font-variant:normal;font-weight:normal;font-stretch:normal;font-size:2.72295px;line-height:1.25;font-family:Bahnschrift;-inkscape-font-specification:Bahnschrift;text-align:center;letter-spacing:0px;text-anchor:middle;stroke-width:0.255275"
       xml:space="preserve"><tspan
         id="tspan2082"
         style="font-size:2.72295px;text-align:center;text-anchor:middle;stroke-width:0.255275"
         y="51.215862"
         x="150.52959"
         sodipodi:role="line">USE</tspan><tspan
         style="font-size:2.72295px;text-align:center;text-anchor:middle;stroke-width:0.255275"
         y="54.619549"
         x="150.52959"
         sodipodi:role="line"
         id="tspan2088">STAIRS</tspan></text>
    <text
       id="text2094"
       y="37.641918"
       x="61.130974"
       style="font-style:normal;font-variant:normal;font-weight:normal;font-stretch:normal;font-size:2.72295px;line-height:1.25;font-family:Bahnschrift;-inkscape-font-specification:Bahnschrift;text-align:center;letter-spacing:0px;text-anchor:middle;stroke-width:0.255275"
       xml:space="preserve"><tspan
         id="tspan2092"
         style="font-size:2.72295px;text-align:center;text-anchor:middle;stroke-width:0.255275"
         y="37.641918"
         x="61.130974"
         sodipodi:role="line">DROP</tspan><tspan
         style="font-size:2.72295px;text-align:center;text-anchor:middle;stroke-width:0.255275"
         y="41.045605"
         x="61.130974"
         sodipodi:role="line"
         id="tspan2098">MENU</tspan></text>
  </g>
</svg>
